<?xml version="1.0" encoding="utf-8"?>
<!-- Generator: Adobe Illustrator 21.1.0, SVG Export Plug-In . SVG Version: 6.00 Build 0)  -->
<svg version="1.1" id="Layer_1" xmlns="http://www.w3.org/2000/svg" xmlns:xlink="http://www.w3.org/1999/xlink" x="0px" y="0px"
	 viewBox="0 0 206.9 187.6" style="enable-background:new 0 0 206.9 187.6;" xml:space="preserve">
<style type="text/css">
	.st0{fill:#16B8E0;}
	.st1{fill:#008AB3;}
	.st2{fill:#F04D5D;}
	.st3{fill:#FC8626;}
</style>
<g id="XMLID_1_">
	<path class="st0" d="M201.7,129.1L139,20.5c4.7,8.2,6.4,17.6,5,26.7l-14.6,95.5c-1.3,8.5,0.2,17.4,4.8,25.4
		c0.2,0.4,0.4,0.7,0.6,1.1c3.5,5.7,8.4,10.3,14.2,13.5c5.7,3.2,12.2,4.9,19,4.9c20.5,0,37.3-15.8,38.9-36c0.1-1,0.1-2,0.1-3
		C206.9,141.8,205.1,135.1,201.7,129.1z"/>
	<path class="st1" d="M139,61.5c2.6-4.5,4.3-9.3,5-14.3l-14.6,95.5c-1.3,8.5,0.2,17.4,4.8,25.4c0.2,0.4,0.4,0.7,0.6,1.1l-31.3-50.5
		l34.8-56.1C138.5,62.3,138.7,61.9,139,61.5z"/>
	<path class="st2" d="M139,20.5C131.4,7.4,117.7,0.1,103.7,0c-7,0-14.2,1.7-20.7,5.5c-6.2,3.6-11.4,8.8-15,15
		c-7.8,13.6-7,29.7,0.7,42.2l34.8,56.1l34.8-56.1c0.2-0.4,0.5-0.8,0.7-1.1c2.6-4.5,4.3-9.3,5-14.3C145.4,38.1,143.7,28.7,139,20.5z"
		/>
	<path class="st3" d="M68.6,62.7c-7.7-12.4-8.5-28.6-0.7-42.2L55.7,41.8L5.2,129.1c-10.8,18.7-4.4,42.5,14.3,53.3
		c5.9,3.4,12.7,5.2,19.5,5.2c14,0,26.3-7.4,33.2-18.5l31.3-50.4L68.6,62.7z"/>
</g>
</svg>
